<svg width="141" height="26" viewBox="0 0 141 26" fill="none" xmlns="http://www.w3.org/2000/svg">
<path d="M4.48 6.56L8.8 4.4L13.12 6.56V10.88L8.8 13.04V8.72L4.48 6.56ZM4.48 6.56V21.68L8.8 23.84L4.48 26L0.16 23.84V8.72L4.48 6.56ZM8.8 23.84V19.52L13.12 17.36V21.68L8.8 23.84ZM21.7769 10.88L26.0969 8.72L30.4169 10.88V21.68L26.0969 23.84V13.04L21.7769 10.88ZM21.7769 10.88V21.68L26.0969 23.84L21.7769 26L17.4569 23.84V13.04L21.7769 10.88ZM39.0738 0.079999V21.68L43.3938 23.84L39.0738 26L34.7538 23.84V2.24L39.0738 0.079999ZM49.8667 0.079999V21.68L54.1867 23.84L49.8667 26L45.5467 23.84V2.24L49.8667 0.079999ZM64.9797 17.36V13.04L60.6597 10.88L64.9797 8.72L69.2997 10.88V15.2L64.9797 17.36ZM64.9797 17.36L60.6597 19.52V21.68L64.9797 23.84L60.6597 26L56.3397 23.84V13.04L60.6597 10.88V15.2L64.9797 17.36ZM64.9797 23.84V21.68L69.2997 19.52V21.68L64.9797 23.84ZM77.9566 10.88L82.2766 8.72L86.5966 10.88V13.04L82.2766 15.2V13.04L77.9566 10.88ZM77.9566 10.88V21.68L82.2766 23.84L77.9566 26L73.6366 23.84V13.04L77.9566 10.88ZM82.2766 23.84V19.52L86.5966 17.36V21.68L82.2766 23.84ZM95.2534 0.079999V6.56L97.4134 5.48V7.64L95.2534 8.72V21.68L99.5734 23.84L95.2534 26L90.9334 23.84V10.88L88.7734 11.96V9.8L90.9334 8.72V2.24L95.2534 0.079999ZM103.886 4.472L105.974 6.56L103.886 8.648L101.798 6.56L103.886 4.472ZM106.046 8.72V23.84L101.726 26V10.88L106.046 8.72ZM114.695 10.88L119.015 8.72L123.335 10.88V21.68L119.015 23.84V13.04L114.695 10.88ZM114.695 10.88V21.68L119.015 23.84L114.695 26L110.375 23.84V13.04L114.695 10.88ZM129.832 8.72L131.992 9.8V10.88L136.312 8.72L140.632 10.88V23.84L136.312 26V13.04L131.992 10.88V23.84L127.672 26V11.96L125.512 10.88L129.832 8.72Z" fill="#ECF0F6"/>
</svg>
