<svg width="390" height="102" viewBox="0 0 390 102" fill="none" xmlns="http://www.w3.org/2000/svg">
<g clip-path="url(#clip0_440_127)">
<rect width="390" height="102" fill="url(#paint0_linear_440_127)" fill-opacity="0.5"/>
<path d="M109.48 64.4V80.6L113.8 82.76V80.6L118.12 78.44V82.76L111.64 86L105.16 82.76V66.56L109.48 64.4ZM126.777 70.88L131.097 68.72L135.417 70.88V83.84L131.097 86V83.84L126.777 86L122.457 83.84V73.04L126.777 70.88ZM126.777 70.88V81.68L131.097 83.84V73.04L126.777 70.88ZM144.074 70.88L148.394 68.72L152.714 70.88V75.2L148.394 77.36V73.04L144.074 70.88ZM144.074 70.88V83.84L139.754 86V73.04L144.074 70.88ZM159.211 68.72L161.371 69.8V70.88L165.691 68.72L170.011 70.88V83.84L165.691 86V73.04L161.371 70.88V83.84L157.051 86V71.96L154.891 70.88L159.211 68.72ZM178.668 70.88L182.988 68.72L187.308 70.88V90.32L182.988 92.48V83.84L178.668 86L174.348 83.84V73.04L178.668 70.88ZM178.668 70.88V81.68L182.988 83.84V73.04L178.668 70.88ZM182.988 92.48L178.668 94.64L174.348 92.48L178.668 90.32L182.988 92.48ZM200.284 77.36V73.04L195.964 70.88L200.284 68.72L204.604 70.88V75.2L200.284 77.36ZM200.284 77.36L195.964 79.52V81.68L200.284 83.84L195.964 86L191.644 83.84V73.04L195.964 70.88V75.2L200.284 77.36ZM200.284 83.84V81.68L204.604 79.52V81.68L200.284 83.84ZM213.261 70.88L217.581 68.72L221.901 70.88V83.84L217.581 86V83.84L213.261 86L208.941 83.84V73.04L213.261 70.88ZM213.261 70.88V81.68L217.581 83.84V73.04L213.261 70.88ZM230.558 70.88L234.878 68.72L239.198 70.88V75.2L234.878 77.36V73.04L230.558 70.88ZM230.558 70.88V83.84L226.238 86V73.04L230.558 70.88ZM260.808 68.72L267.288 71.96V76.28L258.648 80.6V81.68L260.808 82.76L262.968 81.68V80.6L267.288 78.44V83.84L262.968 86L260.808 84.92L258.648 86L254.328 83.84V80.6L262.968 76.28V74.12L258.648 71.96V74.12L254.328 76.28V71.96L260.808 68.72ZM275.945 68.72V77.36L280.265 79.52L275.945 81.68L271.625 79.52V70.88L275.945 68.72ZM280.265 79.52V70.88L284.585 68.72V83.84L280.265 86V79.52Z" fill="#ECF0F6"/>
<path d="M37.2262 53.6269C41.3458 51.2087 45.7868 48.5076 49.9074 46.0911C50.0117 46.03 50.1133 45.9101 50.2541 45.9865C50.3959 46.0632 50.34 46.208 50.3369 46.3255C50.2416 50.2222 50.2093 54.1199 50.1681 58.0173C50.1643 58.3889 50.0502 58.6163 49.6952 58.8105C47.2036 60.1755 44.727 61.5657 42.242 62.942C42.0988 63.0214 42.0617 63.104 42.0686 63.2551C42.2101 66.3623 42.3435 69.4697 42.4832 72.5769C42.5443 73.9362 42.6164 75.2952 42.6781 76.6542C42.6847 76.8017 42.7093 76.8784 42.8902 76.9195C44.4909 77.2858 46.088 77.6656 47.6848 78.0458C47.8495 78.085 47.9091 78.0647 47.9001 77.8811C47.8311 76.4338 47.7732 74.9858 47.7101 73.5381C47.6637 72.47 47.6148 71.4018 47.5673 70.3337C47.5642 70.2656 47.567 70.1976 47.567 70.0714C46.2101 70.9702 44.9097 71.8348 43.603 72.6914C43.4775 72.7738 43.3652 72.9611 43.1839 72.8731C42.9998 72.7837 43.0892 72.5852 43.0851 72.4364C43.0234 70.2102 42.9728 67.9839 42.9062 65.7576C42.8979 65.482 42.9485 65.3277 43.2303 65.1669C44.5359 64.4245 45.8141 63.6386 47.1021 62.8683C48.07 62.2896 49.0379 61.7105 50.0065 61.1331C50.0877 61.0846 50.1622 60.9853 50.2749 61.0508C50.3837 61.1138 50.3359 61.2277 50.3373 61.319C50.381 64.5182 50.4198 67.7176 50.4638 70.9167C50.5262 75.4503 50.5928 79.9842 50.6569 84.5177C50.6621 84.8926 50.5505 84.9617 50.2031 84.796C46.7398 83.1441 43.2834 81.479 39.8055 79.8557C39.3822 79.6581 39.282 79.444 39.2553 79.0382C39.1347 77.214 38.9748 75.3922 38.8324 73.5697C38.7124 72.0373 38.5997 70.5044 38.4787 68.972C38.3411 67.2285 38.1955 65.4857 38.0575 63.7422C37.9556 62.4566 37.8641 61.17 37.7615 59.8843C37.636 58.3085 37.5039 56.733 37.3749 55.1575" fill="#ECF0F6"/>
<path d="M55.8376 87.2596C56.5605 86.7563 57.2667 86.2645 57.9732 85.7731C61.8487 83.0761 65.7249 80.3793 69.5998 77.6809C70.0394 77.3747 70.47 77.057 70.9061 76.7465C71.1335 76.5845 71.2146 76.6164 71.2489 76.89C71.2652 77.0208 71.2663 77.1559 71.2524 77.2868C71.1775 77.9834 71.2063 78.6819 71.2146 79.3795C71.2171 79.5778 71.1474 79.7046 70.9962 79.8304C68.3393 82.0464 65.6865 84.267 63.0323 86.486C59.7738 89.2103 56.5147 91.934 53.2556 94.658C53.1211 94.7705 52.9838 94.8798 52.8479 94.9907C52.8104 95.0212 52.7685 95.0388 52.7224 95.0166C52.642 94.9777 52.6433 94.9053 52.6478 94.8329C52.6749 94.4186 52.6985 94.0042 52.7293 93.5902C52.8552 91.8988 52.9814 90.2078 53.111 88.5167C53.2694 86.4472 53.4345 84.3783 53.5905 82.3084C53.7298 80.4586 53.8574 78.6082 53.9964 76.7585C54.1524 74.68 54.3182 72.6021 54.4748 70.5236C54.5958 68.9206 54.7075 67.3169 54.8278 65.7138C54.9626 63.9172 55.0996 62.1206 55.2452 60.3246C55.258 60.1672 55.2074 60.1104 55.0659 60.057C53.8533 59.5981 52.6524 59.109 51.4272 58.6844C51.1075 58.5738 51.0687 58.4473 51.0711 58.1747C51.1044 54.5336 51.1221 50.8923 51.1585 47.2512C51.1623 46.8641 51.1883 46.4759 51.1595 46.0898C51.1471 45.9241 51.2455 45.854 51.3544 45.8069C51.4476 45.7664 51.5433 45.8112 51.6206 45.8587C55.5253 48.2576 59.4282 50.6595 63.3346 53.0558C63.5596 53.1939 63.5918 53.4047 63.5419 53.589C63.1307 55.1167 62.8978 56.6789 62.5289 58.2152C61.7887 61.2955 61.094 64.3857 60.3816 67.4722C59.6175 70.7826 58.8558 74.0936 58.0918 77.404C57.3415 80.6539 56.5892 83.9035 55.8387 87.1534C55.8331 87.1776 55.838 87.2042 55.838 87.2593L55.8376 87.2596Z" fill="#ECF0F6"/>
<path d="M36.3702 55.7838C36.5093 57.9788 36.64 60.1742 36.7804 62.3689C36.9232 64.5989 37.074 66.8284 37.2217 69.0584C37.3881 71.5705 37.5545 74.0823 37.7213 76.5945C37.793 77.6786 37.8672 78.7623 37.9359 79.8467C37.9438 79.9722 37.9799 80.0483 38.1075 80.113C40.7648 81.4614 43.3392 82.9532 45.9968 84.3019C47.4598 85.0443 48.9627 85.7018 50.4798 86.3323C50.6666 86.41 50.7658 86.5083 50.7935 86.7155C51.0414 88.5522 51.3017 90.3874 51.5593 92.2229C51.6966 93.202 51.8346 94.1808 51.9753 95.1593C52.0142 95.4286 51.9982 95.4299 51.7316 95.3971C51.5926 95.3798 51.491 95.3214 51.3832 95.2599C46.9807 92.7538 42.7294 90.0251 38.5124 87.2457C36.7221 86.066 34.9003 84.9308 33.1475 83.6989C32.8924 83.5196 32.7617 83.3028 32.7318 83.0209C32.5408 81.212 32.3606 79.4021 32.1661 77.5936C32.0153 76.1894 31.8412 74.7872 31.6918 73.3827C31.5469 72.0217 31.4127 70.6594 31.2865 69.2968C31.1385 67.6964 31.0002 66.0953 30.8657 64.4939C30.779 63.4643 30.6986 62.434 30.6306 61.4027C30.5647 60.399 30.4798 59.3986 30.2659 58.4118C30.2361 58.274 30.2427 58.1276 30.2011 57.9941C30.1279 57.7577 30.2181 57.6235 30.4306 57.501C32.0998 56.5351 33.7636 55.5606 35.4283 54.5878C35.6474 54.4596 35.88 54.352 36.0738 54.1857C36.1331 54.1349 36.2007 54.0761 36.2933 54.1342C36.3741 54.185 36.3834 54.2607 36.3775 54.3434C36.3692 54.458 36.3626 54.5725 36.3533 54.7176" fill="#ECF0F6"/>
<path d="M62.1999 81.638C62.7959 79.9653 63.2937 78.7394 63.8924 77.0676C64.1954 76.2223 64.4558 75.4008 64.7733 74.5123C63.9923 74.7819 63.4452 74.9705 62.7071 75.2258C61.7139 75.5695 60.721 75.9141 59.7271 76.2555C59.6452 76.2837 59.5572 76.3557 59.4691 76.283C59.3745 76.205 59.4275 76.1071 59.4487 76.0128C60.2339 72.5002 61.0171 68.987 61.8023 65.4744C62.4721 62.4778 63.121 59.4769 63.831 56.4893C64.0068 55.7496 64.2401 55.0201 64.3743 54.269C64.4086 54.0781 64.5182 54.033 64.688 54.1382C65.6466 54.7315 66.6066 55.3226 67.5603 55.9229C67.7288 56.0288 67.7953 56.1779 67.7496 56.4C67.1436 59.3381 66.5508 62.2789 65.9538 65.2188C65.6095 66.9134 65.2628 68.6078 64.9179 70.3025C64.9113 70.3354 64.9113 70.3696 64.9054 70.4343C65.3072 70.3081 65.6719 70.1883 66.0408 70.0807C66.1802 70.0402 66.2561 69.9754 66.2793 69.8313C66.5553 68.1154 66.8354 66.3998 67.1158 64.6845C67.4178 62.8381 67.7211 60.992 68.0248 59.1459C68.1424 58.432 68.2616 57.7185 68.3819 57.005C68.4384 56.6699 68.5386 56.6238 68.8264 56.7968C69.6133 57.2703 70.3975 57.7484 71.1893 58.2146C71.3464 58.3072 71.3901 58.4144 71.3835 58.5814C71.1522 64.2781 71.3162 69.7271 71.2618 75.4251" fill="#ECF0F6"/>
</g>
<defs>
<linearGradient id="paint0_linear_440_127" x1="195" y1="102" x2="195" y2="0" gradientUnits="userSpaceOnUse">
<stop stop-color="#ECF0F7" stop-opacity="0.7"/>
<stop offset="0.745" stop-color="#359AB9"/>
</linearGradient>
<clipPath id="clip0_440_127">
<rect width="390" height="102" fill="white"/>
</clipPath>
</defs>
</svg>
