<svg width="88" height="88" viewBox="0 0 88 88" fill="none" xmlns="http://www.w3.org/2000/svg">
<g filter="url(#filter0_d_1247_181)">
<circle cx="41" cy="40" r="40" fill="#0B0000"/>
</g>
<path d="M41.5001 16.4167C53.6967 16.4167 63.5834 26.3034 63.5834 38.5C63.5834 50.6966 53.6967 60.5834 41.5001 60.5834C29.3035 60.5834 19.4167 50.6966 19.4167 38.5C19.4167 26.3034 29.3035 16.4167 41.5001 16.4167ZM41.5001 47.3334C40.9144 47.3334 40.3527 47.566 39.9386 47.9802C39.5244 48.3943 39.2917 48.956 39.2917 49.5417C39.2917 50.1274 39.5244 50.6891 39.9386 51.1032C40.3527 51.5174 40.9144 51.75 41.5001 51.75C42.0858 51.75 42.6475 51.5174 43.0616 51.1032C43.4758 50.6891 43.7084 50.1274 43.7084 49.5417C43.7084 48.956 43.4758 48.3943 43.0616 47.9802C42.6475 47.566 42.0858 47.3334 41.5001 47.3334ZM41.5001 26.3542C39.377 26.3542 37.3408 27.1976 35.8395 28.6989C34.3383 30.2001 33.4949 32.2363 33.4949 34.3594C33.4949 34.9451 33.7275 35.5068 34.1417 35.9209C34.5558 36.3351 35.1175 36.5677 35.7032 36.5677C36.2889 36.5677 36.8506 36.3351 37.2647 35.9209C37.6789 35.5068 37.9115 34.9451 37.9115 34.3594C37.9123 33.708 38.0903 33.0691 38.4265 32.5112C38.7627 31.9533 39.2444 31.4974 39.82 31.1925C40.3956 30.8875 41.0433 30.745 41.6937 30.7801C42.3442 30.8153 42.9728 31.0268 43.5121 31.392C44.0515 31.7572 44.4813 32.2624 44.7554 32.8532C45.0295 33.4441 45.1376 34.0985 45.0682 34.7462C44.9987 35.3938 44.7542 36.0104 44.361 36.5297C43.9678 37.049 43.4407 37.4515 42.8361 37.694C41.3433 38.2902 39.2917 39.8184 39.2917 42.3646V42.9167C39.2917 43.5024 39.5244 44.0641 39.9386 44.4782C40.3527 44.8924 40.9144 45.125 41.5001 45.125C42.0858 45.125 42.6475 44.8924 43.0616 44.4782C43.4758 44.0641 43.7084 43.5024 43.7084 42.9167C43.7084 42.3779 43.8188 42.1084 44.2848 41.8788L44.4769 41.7904C46.2012 41.0968 47.6305 39.8249 48.5198 38.1929C49.4091 36.5608 49.7029 34.6703 49.351 32.8453C48.999 31.0204 48.0232 29.3747 46.5908 28.1904C45.1584 27.006 43.3587 26.3569 41.5001 26.3542Z" fill="#ECF0F6"/>
<defs>
<filter id="filter0_d_1247_181" x="0" y="0" width="88" height="88" filterUnits="userSpaceOnUse" color-interpolation-filters="sRGB">
<feFlood flood-opacity="0" result="BackgroundImageFix"/>
<feColorMatrix in="SourceAlpha" type="matrix" values="0 0 0 0 0 0 0 0 0 0 0 0 0 0 0 0 0 0 127 0" result="hardAlpha"/>
<feOffset dx="3" dy="4"/>
<feGaussianBlur stdDeviation="2"/>
<feComposite in2="hardAlpha" operator="out"/>
<feColorMatrix type="matrix" values="0 0 0 0 0 0 0 0 0 0 0 0 0 0 0 0 0 0 0.25 0"/>
<feBlend mode="normal" in2="BackgroundImageFix" result="effect1_dropShadow_1247_181"/>
<feBlend mode="normal" in="SourceGraphic" in2="effect1_dropShadow_1247_181" result="shape"/>
</filter>
</defs>
</svg>
